<svg width="24" height="24" viewBox="0 0 24 24" fill="none" xmlns="http://www.w3.org/2000/svg">
<rect width="24" height="24" fill="white"/>
<g clip-path="url(#clip0_2398_15127)">
<path d="M19 3H5C3.9 3 3 3.9 3 5V19C3 20.1 3.9 21 5 21H19C20.1 21 21 20.1 21 19V5C21 3.9 20.1 3 19 3ZM14.99 19.5H5C4.72 19.5 4.5 19.28 4.5 19V18.45L8.83 14.12L10.94 16.23L12 17.29L13.06 16.23L15.17 14.12L19.5 18.45V19C19.5 19.28 19.28 19.5 19 19.5H14.99ZM15.17 12L12 15.17L8.83 12L4.5 16.33V5C4.5 4.72 4.72 4.5 5 4.5H19C19.28 4.5 19.5 4.72 19.5 5V16.33L15.17 12Z" />
<path d="M15.5 6C14.12 6 13 7.12 13 8.5C13 9.88 14.12 11 15.5 11C16.88 11 18 9.88 18 8.5C18 7.12 16.88 6 15.5 6ZM15.5 9.5C14.95 9.5 14.5 9.05 14.5 8.5C14.5 7.95 14.95 7.5 15.5 7.5C16.05 7.5 16.5 7.95 16.5 8.5C16.5 9.05 16.05 9.5 15.5 9.5Z" />
</g>
<defs>
<clipPath id="clip0_2398_15127">
<rect width="18" height="18" fill="white" transform="translate(3 3)"/>
</clipPath>
</defs>
</svg>
