<svg viewBox="0 0 32 32" fill="none" xmlns="http://www.w3.org/2000/svg">
<g clip-path="url(#clip0_398_664)">
<path d="M18 9C18 8.45 17.55 8 17 8H15C14.45 8 14 8.45 14 9V12L12 15V22C12 23.1 12.9 24 14 24H18C19.1 24 20 23.1 20 22V15L18 12V9ZM18.5 15.45V22C18.5 22.28 18.28 22.5 18 22.5H14C13.72 22.5 13.5 22.28 13.5 22V15.45L15.25 12.83L15.5 12.45V9.5H16.5V12.45L16.75 12.83L18.5 15.45Z" />
<path d="M9.25 4H6C4.9 4 4 4.9 4 6V9.25C4 9.66 4.34 10 4.75 10C5.16 10 5.5 9.66 5.5 9.25V6C5.5 5.72 5.72 5.5 6 5.5H9.25C9.66 5.5 10 5.16 10 4.75C10 4.34 9.66 4 9.25 4Z" />
<path d="M26 4H22.75C22.34 4 22 4.34 22 4.75C22 5.16 22.34 5.5 22.75 5.5H26C26.28 5.5 26.5 5.72 26.5 6V9.25C26.5 9.66 26.84 10 27.25 10C27.66 10 28 9.66 28 9.25V6C28 4.9 27.1 4 26 4Z" />
<path d="M9.25 26.5H6C5.72 26.5 5.5 26.28 5.5 26V22.75C5.5 22.34 5.16 22 4.75 22C4.34 22 4 22.34 4 22.75V26C4 27.1 4.9 28 6 28H9.25C9.66 28 10 27.66 10 27.25C10 26.84 9.66 26.5 9.25 26.5Z" />
<path d="M27.25 22C26.84 22 26.5 22.34 26.5 22.75V26C26.5 26.28 26.28 26.5 26 26.5H22.75C22.34 26.5 22 26.84 22 27.25C22 27.66 22.34 28 22.75 28H26C27.1 28 28 27.1 28 26V22.75C28 22.34 27.66 22 27.25 22Z" />
</g>
<defs>
<clipPath id="clip0_398_664">
<rect width="24" height="24" fill="white" transform="translate(4 4)"/>
</clipPath>
</defs>
</svg>
