<svg viewBox="0 0 32 32" fill="none" xmlns="http://www.w3.org/2000/svg">
<g clip-path="url(#clip0_398_623)">
<path d="M16 5.5C18.48 5.5 20.5 7.52 20.5 10C20.5 12.48 18.48 14.5 16 14.5C13.52 14.5 11.5 12.48 11.5 10C11.5 7.52 13.52 5.5 16 5.5ZM16 4C12.69 4 10 6.69 10 10C10 13.31 12.69 16 16 16C19.31 16 22 13.31 22 10C22 6.69 19.31 4 16 4Z" />
<path d="M19 19.5C22.58 19.5 25.5 22.42 25.5 26C25.5 26.28 25.28 26.5 25 26.5H7C6.72 26.5 6.5 26.28 6.5 26C6.5 22.42 9.42 19.5 13 19.5H19ZM19 18H13C8.58 18 5 21.58 5 26C5 27.1 5.9 28 7 28H25C26.1 28 27 27.1 27 26C27 21.58 23.42 18 19 18Z" />
</g>
<defs>
<clipPath id="clip0_398_623">
<rect width="22" height="24"  transform="translate(5 4)"/>
</clipPath>
</defs>
</svg>
