<svg viewBox="0 0 32 32" fill="none" xmlns="http://www.w3.org/2000/svg">
<g clip-path="url(#clip0_398_621)">
<path d="M27.96 26.54L20.21 18.79C21.53 17.15 22.25 15.1 22.25 13C22.25 7.9 18.1 3.75 13 3.75C7.9 3.75 3.75 7.9 3.75 13C3.75 18.1 7.9 22.25 13 22.25C15.1 22.25 17.15 21.53 18.79 20.21L26.54 27.96C26.73 28.15 26.98 28.25 27.25 28.25C27.52 28.25 27.77 28.15 27.96 27.96C28.35 27.57 28.35 26.94 27.96 26.55V26.54ZM17.58 18.61C16.29 19.67 14.66 20.25 13 20.25C9 20.25 5.75 17 5.75 13C5.75 9 9 5.75 13 5.75C17 5.75 20.25 9 20.25 13C20.25 14.67 19.67 16.29 18.61 17.58C18.3 17.95 17.96 18.3 17.58 18.61Z" />
</g>
<defs>
<clipPath id="clip0_398_621">
<rect width="24.5" height="24.5" transform="translate(3.75 3.75)"/>
</clipPath>
</defs>
</svg>
