<svg viewBox="0 0 32 32" fill="none" xmlns="http://www.w3.org/2000/svg">
<g clip-path="url(#clip0_398_627)">
<path d="M27.78 26.72L19.87 18.81C21.2 17.24 22 15.22 22 13C22 8.03 17.97 4 13 4C8.03 4 4 8.03 4 13C4 17.97 8.03 22 13 22C15.22 22 17.24 21.2 18.81 19.87L26.72 27.78C26.87 27.93 27.06 28 27.25 28C27.44 28 27.63 27.93 27.78 27.78C28.07 27.49 28.07 27.01 27.78 26.72ZM13 20.5C8.86 20.5 5.5 17.14 5.5 13C5.5 8.86 8.86 5.5 13 5.5C17.14 5.5 20.5 8.86 20.5 13C20.5 14.8 19.86 16.45 18.8 17.74C18.48 18.13 18.13 18.48 17.74 18.8C16.45 19.86 14.8 20.5 13 20.5Z" />
</g>
<defs>
<clipPath id="clip0_398_627">
<rect width="24" height="24" transform="translate(4 4)"/>
</clipPath>
</defs>
</svg>
