<svg viewBox="0 0 32 32" fill="none" xmlns="http://www.w3.org/2000/svg">
<g clip-path="url(#clip0_398_625)">
<path d="M16 5.85L25.29 12.61C25.42 12.7 25.5 12.85 25.5 13.01V25.99C25.5 26.27 25.28 26.49 25 26.49H7C6.72 26.49 6.5 26.27 6.5 25.99V13.01C6.5 12.85 6.58 12.7 6.71 12.61L16 5.85ZM16 4L5.82 11.4C5.3 11.78 5 12.38 5 13.02V26C5 27.1 5.9 28 7 28H25C26.1 28 27 27.1 27 26V13.02C27 12.38 26.69 11.78 26.18 11.4L16 4Z" />
<path d="M18 19C17.55 19 17.14 19.15 16.8 19.41L14.97 18.31C14.99 18.21 15 18.11 15 18C15 17.89 14.98 17.79 14.97 17.69L16.8 16.59C17.13 16.84 17.55 17 18 17C19.1 17 20 16.1 20 15C20 13.9 19.1 13 18 13C16.9 13 16 13.9 16 15C16 15.11 16.02 15.21 16.03 15.31L14.2 16.41C13.87 16.16 13.45 16 13 16C11.9 16 11 16.9 11 18C11 19.1 11.9 20 13 20C13.45 20 13.86 19.85 14.2 19.59L16.03 20.69C16.01 20.79 16 20.89 16 21C16 22.1 16.9 23 18 23C19.1 23 20 22.1 20 21C20 19.9 19.1 19 18 19ZM18 14.5C18.28 14.5 18.5 14.72 18.5 15C18.5 15.18 18.4 15.33 18.25 15.42C18.17 15.47 18.09 15.5 18 15.5C17.72 15.5 17.5 15.28 17.5 15C17.5 14.82 17.6 14.67 17.75 14.58C17.83 14.53 17.91 14.5 18 14.5ZM12.5 18C12.5 17.82 12.6 17.67 12.75 17.58C12.83 17.53 12.91 17.5 13 17.5C13.09 17.5 13.18 17.53 13.25 17.58C13.4 17.67 13.5 17.82 13.5 18C13.5 18.18 13.4 18.33 13.25 18.42C13.17 18.47 13.09 18.5 13 18.5C12.91 18.5 12.82 18.47 12.75 18.42C12.6 18.33 12.5 18.18 12.5 18ZM18 21.5C17.91 21.5 17.82 21.47 17.75 21.42C17.6 21.33 17.5 21.18 17.5 21C17.5 20.72 17.72 20.5 18 20.5C18.09 20.5 18.18 20.53 18.25 20.58C18.4 20.67 18.5 20.82 18.5 21C18.5 21.28 18.28 21.5 18 21.5Z" />
</g>
<defs>
<clipPath id="clip0_398_625">
<rect width="22" height="24" transform="translate(5 4)"/>
</clipPath>
</defs>
</svg>
