<svg viewBox="0 0 32 32" fill="none" xmlns="http://www.w3.org/2000/svg">
<g clip-path="url(#clip0_398_620)">
<path d="M26.18 11.4L16 4L5.82 11.4C5.3 11.78 5 12.38 5 13.02V26C5 27.1 5.9 28 7 28H25C26.1 28 27 27.1 27 26V13.02C27 12.38 26.69 11.78 26.18 11.4ZM15 18C15 18.11 14.98 18.21 14.97 18.31L16.8 19.41C17.13 19.16 17.55 19 18 19C19.1 19 20 19.9 20 21C20 22.1 19.1 23 18 23C16.9 23 16 22.1 16 21C16 20.89 16.02 20.79 16.03 20.69L14.2 19.59C13.87 19.84 13.45 20 13 20C11.9 20 11 19.1 11 18C11 16.9 11.9 16 13 16C13.45 16 13.86 16.15 14.2 16.41L16.03 15.31C16.01 15.21 16 15.11 16 15C16 13.9 16.9 13 18 13C19.1 13 20 13.9 20 15C20 16.1 19.1 17 18 17C17.55 17 17.14 16.85 16.8 16.59L14.97 17.69C14.99 17.79 15 17.89 15 18Z" />
</g>
<defs>
<clipPath id="clip0_398_620">
<rect width="22" height="24" transform="translate(5 4)"/>
</clipPath>
</defs>
</svg>
