<svg viewBox="0 0 32 32" fill="none" xmlns="http://www.w3.org/2000/svg">
<g clip-path="url(#clip0_398_622)">
<path d="M25 21H24V16.5H20V21H12V16.5H8V21H7C5.9 21 5 21.9 5 23V26C5 27.1 5.9 28 7 28H25C26.1 28 27 27.1 27 26V23C27 21.9 26.1 21 25 21Z" />
<path d="M22.75 11.75V13V15H26C27.1 15 28 14.1 28 13V11.75H22.75Z" />
<path d="M27.68 10.25L25.52 5.21C25.2 4.47 24.48 4 23.68 4H21.88L22.66 10.25H27.68Z" />
<path d="M20.37 4H16.75V10.25H21.16L20.37 4Z" />
<path d="M21.25 15V13V11.75H16.75V15H20H21.25Z" />
<path d="M15.25 4H11.63L10.85 10.25H15.25V4Z" />
<path d="M10.75 15H12H15.25V11.75H10.74L10.75 13V15Z" />
<path d="M10.12 4H8.32001C7.52001 4 6.80001 4.48 6.48001 5.21L4.32001 10.25H9.34001L10.12 4Z" />
<path d="M8 15H9.25V11.75H4V13C4 14.1 4.9 15 6 15H8Z" />
</g>
<defs>
<clipPath id="clip0_398_622">
<rect width="24" height="24" transform="translate(4 4)"/>
</clipPath>
</defs>
</svg>
