<svg viewBox="0 0 32 32" fill="none" xmlns="http://www.w3.org/2000/svg">
<g clip-path="url(#clip0_398_624)">
<path d="M25.52 5.21C25.2 4.47 24.48 4 23.68 4H8.32C7.52 4 6.8 4.48 6.48 5.21L4 11V13C4 14.1 4.9 15 6 15H8V21H7C5.9 21 5 21.9 5 23V26C5 27.1 5.9 28 7 28H25C26.1 28 27 27.1 27 26V23C27 21.9 26.1 21 25 21H24V15H26C27.1 15 28 14.1 28 13V11L25.52 5.21ZM23.68 5.5C23.88 5.5 24.06 5.62 24.14 5.8L26.05 10.25H22.67L22.08 5.5H23.69H23.68ZM21.25 13V13.5H16.75V11.75H21.25V13ZM10.75 13V11.75H15.25V13.5H10.75V13ZM12 15H20V21H12V15ZM20.56 5.5L21.16 10.25H16.75V5.5H20.56ZM15.25 5.5V10.25H10.85L11.44 5.5H15.25ZM7.86 5.8C7.94 5.62 8.12 5.5 8.32 5.5H9.93L9.34 10.25H5.95L7.86 5.8ZM6 13.5C5.72 13.5 5.5 13.28 5.5 13V11.75H9.25V13.5H6ZM9.5 16V15H10.5V21H9.5V16ZM25 22.5C25.28 22.5 25.5 22.72 25.5 23V26C25.5 26.28 25.28 26.5 25 26.5H7C6.72 26.5 6.5 26.28 6.5 26V23C6.5 22.72 6.72 22.5 7 22.5H25ZM21.5 21V15H22.5V21H21.5ZM26.5 13C26.5 13.28 26.28 13.5 26 13.5H22.75V13V11.75H26.5V13Z" />
</g>
<defs>
<clipPath id="clip0_398_624">
<rect width="24" height="24" transform="translate(4 4)"/>
</clipPath>
</defs>
</svg>
