<svg width="300" height="300" viewBox="0 0 300 300" fill="none" xmlns="http://www.w3.org/2000/svg">
<rect width="300" height="300" fill="#FF843F"/>
<path d="M56.231 117.233L83.2931 83.0858C87.0316 78.3685 93.1005 78.3685 96.8391 83.0858L123.544 116.782" stroke="white" stroke-width="14" stroke-miterlimit="10" stroke-linecap="round"/>
<path d="M155.402 117.288C162.931 117.288 169.035 123.029 169.035 130.105C169.035 137.181 162.931 142.922 155.402 142.922" stroke="white" stroke-width="14" stroke-miterlimit="10"/>
<path d="M130.486 168.549C123.29 168.549 117.456 162.808 117.456 155.732C117.456 148.656 123.29 142.915 130.486 142.915" stroke="white" stroke-width="14" stroke-miterlimit="10"/>
<path d="M117.456 117.288H156.444" stroke="white" stroke-width="14" stroke-miterlimit="10"/>
<path d="M70.3472 69C66.4812 69 63.3472 72.134 63.3472 76C63.3472 79.866 66.4812 83 70.3472 83L70.3472 69ZM70.3472 83L91.641 83L91.641 69L70.3472 69L70.3472 83Z" fill="white"/>
<path d="M130.486 142.922H156.444" stroke="white" stroke-width="14" stroke-miterlimit="10"/>
<path d="M44.1851 110.342C40.3191 110.342 37.1851 113.476 37.1851 117.342C37.1851 121.208 40.3191 124.342 44.1851 124.342L44.1851 110.342ZM44.1851 124.342L117.59 124.342L117.59 110.342L44.1851 110.342L44.1851 124.342Z" fill="white"/>
<path d="M130.486 168.549H191.499" stroke="white" stroke-width="14" stroke-miterlimit="10"/>
<path d="M105.217 83C109.083 83 112.217 79.866 112.217 76C112.217 72.134 109.083 69 105.217 69V83ZM90.8662 83H105.217V69H90.8662V83Z" fill="white"/>
<path d="M238.014 227.993C238.014 230.206 236.22 232 234.007 232H197.449C195.236 232 193.442 230.206 193.442 227.993V227.993C193.442 221.353 198.824 215.971 205.464 215.971H225.992C232.632 215.971 238.014 221.353 238.014 227.993V227.993Z" fill="white"/>
<path d="M197.521 149.771C197.508 145.905 194.363 142.782 190.497 142.795C186.631 142.808 183.508 145.953 183.521 149.819L197.521 149.771ZM197.655 189.225L197.521 149.771L183.521 149.819L183.655 189.273L197.655 189.225Z" fill="white"/>
<path d="M240.746 188.947C240.746 202.759 229.548 213.965 215.728 213.965C201.908 213.965 190.71 202.767 190.71 188.947" stroke="white" stroke-width="14" stroke-miterlimit="10"/>
<path d="M247.944 149.83C247.963 145.964 244.845 142.814 240.979 142.795C237.113 142.776 233.963 145.894 233.944 149.76L247.944 149.83ZM233.944 149.76L233.747 189.378L247.746 189.448L247.944 149.83L233.944 149.76Z" fill="white"/>
<path d="M190.869 168.549H258.5" stroke="white" stroke-width="14" stroke-miterlimit="10"/>
<path d="M40 107.382C40 103.516 36.866 100.382 33 100.382C29.134 100.382 26 103.516 26 107.382H40ZM44.3169 110.233C42.8293 110.233 41.6458 109.706 40.9111 109.067C40.1903 108.44 40 107.826 40 107.382H26C26 117.569 35.1479 124.233 44.3169 124.233V110.233Z" fill="white"/>
<path d="M260.198 158.698C260.198 154.832 263.332 151.698 267.198 151.698C271.064 151.698 274.198 154.832 274.198 158.698H260.198ZM256.882 161.548C259.02 161.548 260.198 159.969 260.198 158.698H274.198C274.198 168.306 266.134 175.548 256.882 175.548V161.548Z" fill="white"/>
</svg>
