<svg width="40" height="40" viewBox="0 0 40 40" fill="none" xmlns="http://www.w3.org/2000/svg">
<g id="Layer_1" clip-path="url(#clip0_2088_24246)">
<path id="Vector" d="M20 40C31.0457 40 40 31.0457 40 20C40 8.9543 31.0457 0 20 0C8.9543 0 0 8.9543 0 20C0 31.0457 8.9543 40 20 40Z" fill="#FFDAC4"/>
<path id="Vector_2" d="M28.2399 24.4799L27.6399 23.2699V17.8199C27.6399 13.5999 24.2199 10.1799 19.9999 10.1799C15.7799 10.1799 12.3599 13.5999 12.3599 17.8199V23.2699L11.7599 24.4799C11.0299 25.9299 12.0899 27.6399 13.7099 27.6399H16.9299C17.3799 28.9099 18.5799 29.8199 19.9999 29.8199C21.4199 29.8199 22.6199 28.9099 23.0699 27.6399H26.2899C27.9099 27.6399 28.9699 25.9299 28.2399 24.4799Z" fill="#FFA069"/>
</g>
<defs>
<clipPath id="clip0_2088_24246">
<rect width="40" height="40" fill="white"/>
</clipPath>
</defs>
</svg>
