<svg width="24" height="24" viewBox="0 0 24 24" fill="none" xmlns="http://www.w3.org/2000/svg">
<g clip-path="url(#clip0_5675_28710)">
<path d="M12 0C5.372 0 0 5.372 0 12C0 18.628 5.372 24 12 24C18.628 24 24 18.628 24 12C24 5.372 18.628 0 12 0ZM12 5C14.43 5 16.4 6.97 16.4 9.4C16.4 11.83 14.43 13.8 12 13.8C9.57 13.8 7.6 11.83 7.6 9.4C7.6 6.97 9.57 5 12 5ZM12 22C9.538 22 7.286 21.108 5.544 19.634C6.44 16.924 8.99 14.968 12 14.968C15.01 14.968 17.562 16.924 18.456 19.634C16.714 21.11 14.462 22 12 22Z" fill="#E2E8F0"/>
<path d="M12.0001 13.8C14.4301 13.8 16.4001 11.83 16.4001 9.4C16.4001 6.97 14.4301 5 12.0001 5C9.5701 5 7.6001 6.97 7.6001 9.4C7.6001 11.83 9.5701 13.8 12.0001 13.8ZM13.6001 8.2C13.8761 8.2 14.1001 8.468 14.1001 8.8C14.1001 9.132 13.8761 9.4 13.6001 9.4C13.3241 9.4 13.1001 9.132 13.1001 8.8C13.1001 8.468 13.3241 8.2 13.6001 8.2ZM13.2501 10.464C13.3461 10.41 13.4681 10.442 13.5241 10.538C13.5801 10.634 13.5461 10.756 13.4501 10.812C13.0081 11.066 12.5061 11.2 12.0001 11.2C11.4941 11.2 10.9921 11.066 10.5501 10.812C10.4541 10.756 10.4221 10.634 10.4761 10.538C10.5321 10.442 10.6541 10.41 10.7501 10.464C11.5121 10.902 12.4881 10.902 13.2501 10.464ZM10.4001 8.2C10.6761 8.2 10.9001 8.468 10.9001 8.8C10.9001 9.132 10.6761 9.4 10.4001 9.4C10.1241 9.4 9.9001 9.132 9.9001 8.8C9.9001 8.468 10.1241 8.2 10.4001 8.2Z" fill="white"/>
<path d="M11.9999 14.968C8.98995 14.968 6.43795 16.924 5.54395 19.634C7.28595 21.11 9.53795 22 11.9999 22C14.4619 22 16.7139 21.108 18.4559 19.634C17.5599 16.924 15.0099 14.968 11.9999 14.968Z" fill="white"/>
<path d="M10.4758 10.538C10.4198 10.634 10.4538 10.756 10.5498 10.812C10.9918 11.066 11.4938 11.2 11.9998 11.2C12.5058 11.2 13.0078 11.066 13.4498 10.812C13.5458 10.756 13.5778 10.634 13.5238 10.538C13.4678 10.442 13.3458 10.41 13.2498 10.464C12.4878 10.902 11.5118 10.902 10.7498 10.464C10.6538 10.41 10.5318 10.442 10.4758 10.538Z" fill="#E2E8F0"/>
<path d="M10.3999 9.39995C10.676 9.39995 10.8999 9.13132 10.8999 8.79995C10.8999 8.46858 10.676 8.19995 10.3999 8.19995C10.1238 8.19995 9.8999 8.46858 9.8999 8.79995C9.8999 9.13132 10.1238 9.39995 10.3999 9.39995Z" fill="#E2E8F0"/>
<path d="M13.6001 9.39995C13.8762 9.39995 14.1001 9.13132 14.1001 8.79995C14.1001 8.46858 13.8762 8.19995 13.6001 8.19995C13.324 8.19995 13.1001 8.46858 13.1001 8.79995C13.1001 9.13132 13.324 9.39995 13.6001 9.39995Z" fill="#E2E8F0"/>
</g>
<defs>
<clipPath id="clip0_5675_28710">
<rect width="24" height="24" fill="white"/>
</clipPath>
</defs>
</svg>
