<svg width="39" height="40" viewBox="0 0 39 40" fill="none" xmlns="http://www.w3.org/2000/svg">
<g id="Layer_1" clip-path="url(#clip0_7527_19654)">
<path id="Vector" d="M5.57532 35.6884C5.68739 36.813 6.6213 37.6565 7.74199 37.6565H31.2485C32.3691 37.6565 33.3031 36.813 33.4151 35.6884L35.946 10.9648H3.04443L5.57532 35.6884ZM8.16225 19.1279C8.71326 19.1279 9.16153 19.5403 9.22691 20.0745L9.88998 20.0932L11.4029 18.1813C10.992 18.0314 10.7025 17.6378 10.7025 17.1692C10.7025 16.5787 11.1881 16.0914 11.7765 16.0914H15.4654C16.0538 16.0914 16.5394 16.5693 16.5394 17.1692C16.5394 17.5909 16.2966 17.9658 15.9324 18.1345L17.4827 20.0839H20.1163C21.4144 20.1495 22.4137 21.171 22.4137 22.3988C22.4137 23.6265 21.4144 24.6481 20.1443 24.7137H17.6041C17.5293 24.7137 17.492 24.7418 17.464 24.7699C17.4453 24.7886 17.4173 24.8261 17.4173 24.8824C17.4173 24.9573 17.492 25.0511 17.6041 25.0511H22.3483V24.3107C22.3483 24.0201 22.4604 23.7483 22.6565 23.5515C22.862 23.3453 23.0861 23.2141 23.4223 23.2329C24.0107 23.2329 24.4963 23.7109 24.4963 24.3013V25.0417H27.2233V24.3013C27.2233 23.7109 27.7089 23.2329 28.2973 23.2329C28.5868 23.2329 28.8483 23.3453 29.0538 23.5515C29.2592 23.7577 29.3713 24.0295 29.362 24.3107V25.0417H29.7635C29.8196 24.5075 30.2772 24.0857 30.8282 24.0857C31.4166 24.0857 31.9022 24.5637 31.9022 25.1635C31.9022 26.2132 31.099 27.0848 30.0344 27.1785H29.3526V28.1345C29.3339 29.1748 28.8577 30.1401 28.0732 30.7868C28.3253 31.0773 28.4841 31.4616 28.4841 31.8646C28.4841 32.3332 28.1012 32.7174 27.6249 32.7174H24.0854C23.6184 32.7174 23.2262 32.3332 23.2262 31.8646C23.2262 31.4616 23.3756 31.0773 23.6371 30.7868C22.8433 30.1401 22.367 29.1654 22.3577 28.1157V27.1785H17.5947C16.3059 27.1785 15.26 26.1382 15.26 24.8636C15.26 23.589 16.3059 22.5487 17.5947 22.5487H20.0042C20.1723 22.5487 20.247 22.4363 20.247 22.38C20.247 22.3238 20.1723 22.2113 20.0042 22.2113H9.23624C9.15219 22.2113 9.06814 22.2113 8.98409 22.1832C7.92877 22.0989 7.07892 21.2273 7.07892 20.1776C7.07892 19.5871 7.56455 19.0998 8.15291 19.0998L8.16225 19.1279Z" fill="#E2E8F0"/>
<path id="Vector_2" d="M2.34406 4.14288C2.27869 3.51495 2.57754 3.08384 2.75498 2.88702C2.93243 2.69021 3.33401 2.35282 3.95973 2.35282H35.0402C35.6659 2.35282 36.0675 2.69021 36.2449 2.88702C36.4224 3.08384 36.7212 3.51495 36.6558 4.14288L35.9554 10.9657H38.2995L38.9719 4.38656C39.2148 2.04354 37.3843 0.00979789 35.0308 0.00979789H3.95973C1.61562 0.000425818 -0.214843 2.03417 0.0186336 4.37718L0.691047 10.9564H3.03516L2.33473 4.13351L2.34406 4.14288Z" fill="#64748B"/>
<path id="Vector_3" d="M7.7512 39.9995H31.2577C33.5738 39.9995 35.5163 38.2376 35.7498 35.932L38.3087 10.9648H35.9646L33.4337 35.6884C33.3216 36.813 32.3877 37.6565 31.267 37.6565H7.7512C6.63051 37.6565 5.6966 36.813 5.58453 35.6884L3.0443 10.9648H0.700195L3.2591 35.932C3.49258 38.2469 5.43511 39.9995 7.7512 39.9995Z" fill="#64748B"/>
<path id="Vector_4" d="M13.8686 18.519L13.5044 18.2285L13.8686 18.519Z" fill="#E2E8F0"/>
<path id="Vector_5" d="M13.6911 18.7539L12.6265 20.0941H14.7464L13.6911 18.7539Z" fill="#E2E8F0"/>
<path id="Vector_6" d="M24.5059 27.6284V28.097C24.5059 28.8374 25.113 29.4466 25.8601 29.4466C26.6072 29.4466 27.2049 28.8467 27.2049 28.097V27.1973H24.4966V27.6284H24.5059Z" fill="#E2E8F0"/>
<path id="Vector_7" d="M8.99337 22.2122C9.07742 22.2309 9.16147 22.2403 9.24552 22.2403H20.0135C20.1816 22.2403 20.2563 22.3434 20.2563 22.3996C20.2563 22.4558 20.1816 22.5683 20.0135 22.5683H17.604C16.3152 22.5683 15.2692 23.6086 15.2692 24.8832C15.2692 26.1578 16.3152 27.1981 17.604 27.1981H22.3576V28.1353C22.3763 29.185 22.8526 30.1503 23.6464 30.8063C23.3942 31.0969 23.2355 31.4811 23.2355 31.8841C23.2355 32.3527 23.6184 32.737 24.0947 32.737H27.6342C28.1011 32.737 28.4934 32.3527 28.4934 31.8841C28.4934 31.4811 28.3439 31.0969 28.0825 30.8063C28.8669 30.1597 29.3432 29.1943 29.3619 28.154V27.1981H30.053C31.1177 27.095 31.9208 26.2234 31.9208 25.1831C31.9208 24.5927 31.4352 24.1053 30.8468 24.1053C30.2958 24.1053 29.8382 24.5271 29.7822 25.0613H29.3806V24.3302C29.3806 24.0397 29.2778 23.7679 29.0724 23.5711C28.8669 23.3649 28.6054 23.2525 28.3159 23.2525C27.7276 23.2525 27.2419 23.7304 27.2419 24.3209V25.0613H24.5149V24.3209C24.5149 23.7304 24.0293 23.2525 23.4409 23.2525C23.1141 23.2337 22.8806 23.3649 22.6751 23.5711C22.4697 23.7773 22.3576 24.0491 22.3669 24.3302V25.0706H17.632C17.5199 25.0706 17.4452 24.9863 17.4452 24.9019C17.4452 24.8457 17.4733 24.8082 17.4919 24.7895C17.5199 24.7614 17.5573 24.7332 17.632 24.7332H20.1722C21.4424 24.6676 22.4416 23.6461 22.4416 22.4183C22.4416 21.1906 21.4424 20.169 20.1442 20.1034H17.5106L15.9603 18.1447C16.3152 17.9666 16.5674 17.6011 16.5674 17.1794C16.5674 16.5889 16.0817 16.1016 15.4934 16.1016H11.8044C11.2161 16.1016 10.7304 16.5795 10.7304 17.1794C10.7304 17.6386 11.0199 18.0322 11.4309 18.1915L9.91794 20.1034L9.25486 20.0847C9.18949 19.5505 8.73187 19.1381 8.19021 19.1381C7.60184 19.1381 7.11621 19.6161 7.11621 20.2159C7.11621 21.2656 7.96607 22.1372 9.02138 22.2215L8.99337 22.2122ZM27.2046 27.1981V28.0978C27.2046 28.8382 26.5975 29.4474 25.8504 29.4474C25.1033 29.4474 24.5056 28.8476 24.5056 28.0978V27.6292V27.1981H27.2139H27.2046ZM13.6909 18.7539L14.7556 20.0941H12.6356L13.7003 18.7539H13.6909Z" fill="#64748B"/>
</g>
<defs>
<clipPath id="clip0_7527_19654">
<rect width="39" height="40" fill="white"/>
</clipPath>
</defs>
</svg>
