<svg width="24" height="24" viewBox="0 0 24 24" fill="none" xmlns="http://www.w3.org/2000/svg">
<g clip-path="url(#clip0_2353_4047)">
<path d="M12 21C16.9706 21 21 16.9706 21 12C21 7.02944 16.9706 3 12 3C7.02944 3 3 7.02944 3 12C3 16.9706 7.02944 21 12 21Z" fill="#94A3B8"/>
<path d="M13.0599 11.9999L15.5299 9.52994C15.8199 9.23994 15.8199 8.75994 15.5299 8.46994C15.2399 8.17994 14.7599 8.17994 14.4699 8.46994L11.9999 10.9399L9.52994 8.46994C9.23994 8.17994 8.75994 8.17994 8.46994 8.46994C8.17994 8.75994 8.17994 9.23994 8.46994 9.52994L10.9399 11.9999L8.46994 14.4699C8.17994 14.7599 8.17994 15.2399 8.46994 15.5299C8.61994 15.6799 8.80994 15.7499 8.99994 15.7499C9.18994 15.7499 9.37994 15.6799 9.52994 15.5299L11.9999 13.0599L14.4699 15.5299C14.6199 15.6799 14.8099 15.7499 14.9999 15.7499C15.1899 15.7499 15.3799 15.6799 15.5299 15.5299C15.8199 15.2399 15.8199 14.7599 15.5299 14.4699L13.0599 11.9999Z" fill="white"/>
</g>
<defs>
<clipPath id="clip0_2353_4047">
<rect width="18" height="18" fill="white" transform="translate(3 3)"/>
</clipPath>
</defs>
</svg>
