<svg width="31" height="28" viewBox="0 0 31 28" fill="none" xmlns="http://www.w3.org/2000/svg">
<g clip-path="url(#clip0_4222_16083)">
<path d="M14.4469 2.85136H15.2042V1.6271L14.4706 1.57971L14.4469 2.85136Z" fill="#E2E8F0"/>
<path d="M18.8014 9.0832L18.6909 10.0626C18.7304 10.0468 18.7777 10.0389 18.8171 10.0231C19.4877 9.63609 20.245 9.37544 21.0496 9.29646C20.6157 9.0911 20.1345 8.96472 19.6218 8.96472C19.3378 8.96472 19.0617 9.01211 18.8014 9.0753V9.0832Z" fill="#E2E8F0"/>
<path d="M14.3917 8.87786C14.8256 8.87786 15.1805 9.23329 15.1805 9.6677C15.1805 10.1021 14.8256 10.4575 14.3917 10.4575H13.3267C13.7843 11.2948 14.0446 12.2584 14.0446 13.2773H16.2218C16.3717 12.7718 16.6005 12.29 16.8845 11.8556L17.6417 5.30776C17.6733 4.99972 17.5313 4.78646 17.4445 4.69168C17.3578 4.5969 17.1605 4.43103 16.8529 4.43103H13.0033C12.6957 4.43103 12.4984 4.5969 12.4117 4.69168C12.3249 4.78646 12.1829 4.99972 12.2145 5.30776L12.2933 5.97913H14.3759C14.8098 5.97913 15.1648 6.33456 15.1648 6.76897C15.1648 7.20339 14.8098 7.55882 14.3759 7.55882H12.4748L12.6247 8.86996H14.3759L14.3917 8.87786Z" fill="#E2E8F0"/>
<path d="M12.4748 13.2773C12.4748 12.1004 12.0015 11.042 11.2363 10.2601C11.2048 10.2364 11.1732 10.2048 11.1495 10.1732C10.3765 9.43077 9.3273 8.97266 8.17558 8.97266C5.80114 8.97266 3.87634 10.8999 3.87634 13.2773H12.4748Z" fill="#E2E8F0"/>
<path d="M21.6097 20.5281C18.5016 20.5281 15.9852 18.0085 15.9852 14.8965C15.9852 14.8807 15.9852 14.8649 15.9852 14.8491H2.87446C2.62991 14.8491 2.40115 14.9597 2.24338 15.1493C2.1566 15.2519 2.0225 15.4731 2.0935 15.7732C2.82713 19.1301 5.02013 21.8945 7.90733 23.4663H18.9512C20.3396 22.7081 21.5623 21.6734 22.5405 20.4333C22.2329 20.4807 21.9252 20.5202 21.6097 20.5202V20.5281Z" fill="#E2E8F0"/>
<path d="M9.16943 25.0538V25.6225C9.16943 26.0569 9.52442 26.4124 9.95828 26.4124H16.9081C17.3419 26.4124 17.6969 26.0569 17.6969 25.6225V25.0538H9.16943Z" fill="#E2E8F0"/>
<path d="M30.2633 22.4474L26.0982 18.277C26.8081 17.3371 27.2341 16.1681 27.2341 14.8964C27.2341 12.5664 25.8221 10.5681 23.8105 9.71506C22.9349 8.31703 21.3887 7.39291 19.6217 7.39291C19.4087 7.39291 19.1957 7.40871 18.9906 7.4403L19.2194 5.48939C19.385 4.08346 18.2806 2.84341 16.8686 2.84341H16.7818V1.61915C16.7818 0.726621 16.0561 -0.00793457 15.1568 -0.00793457L14.4626 -0.00793457C13.5712 -0.00793457 12.8376 0.718723 12.8376 1.61915V2.8592C11.5123 2.95398 10.5026 4.13085 10.6603 5.48149L10.9601 8.08797C10.1318 7.63776 9.1773 7.38501 8.16757 7.38501C4.92539 7.38501 2.29063 10.0231 2.29063 13.2694C2.29063 13.2931 2.29063 13.3167 2.29063 13.3404C1.09158 13.6406 0.263285 14.8411 0.539383 16.1128C1.40712 20.062 4.04977 23.3399 7.57593 25.0933V25.6146C7.57593 26.9258 8.63299 27.9842 9.94249 27.9842H16.8923C18.2018 27.9842 19.2588 26.9258 19.2588 25.6146V25.0933C21.7279 23.8691 23.7553 21.8945 25.049 19.4617L29.1352 23.5531C29.293 23.7111 29.4902 23.7822 29.6953 23.7822C29.9004 23.7822 30.0976 23.7032 30.2554 23.5531C30.5631 23.2451 30.5631 22.7475 30.2554 22.4395L30.2633 22.4474ZM18.9591 23.4742H7.91514C5.02794 21.9024 2.83494 19.1379 2.10131 15.7811C2.0382 15.4809 2.1723 15.2598 2.25119 15.1571C2.40896 14.9675 2.63773 14.8569 2.88227 14.8569H16.0009C16.0009 14.8569 16.0009 14.8885 16.0009 14.9043C16.0009 18.0163 18.5173 20.5359 21.6254 20.5359C21.9409 20.5359 22.2564 20.5043 22.5562 20.449C21.578 21.6891 20.3553 22.7238 18.9669 23.482L18.9591 23.4742ZM17.6969 25.0538V25.6225C17.6969 26.0569 17.3419 26.4124 16.908 26.4124H9.95826C9.52439 26.4124 9.16941 26.0569 9.16941 25.6225V25.0538H17.6969ZM8.17546 8.9726C9.32718 8.9726 10.3764 9.43071 11.1494 10.1732C11.181 10.2048 11.2046 10.2285 11.2362 10.26C12.0014 11.0341 12.4747 12.1004 12.4747 13.2773H3.87622C3.87622 10.8998 5.80102 8.9726 8.17546 8.9726ZM14.3916 7.56668C14.8255 7.56668 15.1805 7.21125 15.1805 6.77683C15.1805 6.34242 14.8255 5.98699 14.3916 5.98699H12.309L12.2302 5.31562C12.1986 5.00758 12.3406 4.79432 12.4274 4.69954C12.5141 4.59686 12.7114 4.43889 13.019 4.43889H16.8686C17.1762 4.43889 17.3735 4.60476 17.4602 4.69954C17.547 4.79432 17.689 5.00758 17.6574 5.31562L16.9002 11.8634C16.6162 12.2978 16.3953 12.7797 16.2375 13.2852H14.0603C14.0603 12.2584 13.8 11.3026 13.3424 10.4654H14.4074C14.8412 10.4654 15.1962 10.11 15.1962 9.67556C15.1962 9.24115 14.8412 8.88572 14.4074 8.88572H12.6561L12.5063 7.57458H14.4074L14.3916 7.56668ZM15.2041 2.8513H14.4468L14.4626 1.57965L15.1962 1.62704V2.8513H15.2041ZM25.6564 14.9043C25.6564 17.1396 23.842 18.9562 21.6096 18.9562C19.3771 18.9562 17.5628 17.1396 17.5628 14.9043C17.5628 12.6691 19.3771 10.8524 21.6096 10.8524C23.842 10.8524 25.6564 12.6691 25.6564 14.9043ZM18.8092 10.0231C18.7697 10.0389 18.7224 10.0468 18.683 10.0626L18.7934 9.08318C19.0616 9.01209 19.3298 8.9726 19.6138 8.9726C20.1266 8.9726 20.6077 9.09898 21.0416 9.30434C20.2291 9.38332 19.4797 9.64397 18.8092 10.031V10.0231Z" fill="#64748B"/>
<path d="M22.5385 18.8466C24.7137 18.3326 26.0609 16.1503 25.5475 13.9723C25.0341 11.7943 22.8545 10.4454 20.6793 10.9595C18.5041 11.4735 17.1569 13.6558 17.6703 15.8338C18.1837 18.0118 20.3633 19.3606 22.5385 18.8466Z" fill="#E2E8F0"/>
</g>
<defs>
<clipPath id="clip0_4222_16083">
<rect width="30" height="28" fill="white" transform="translate(0.5)"/>
</clipPath>
</defs>
</svg>
