<svg width="19" height="18" viewBox="0 0 19 18" fill="none" xmlns="http://www.w3.org/2000/svg">
<g id="Layer_1" clip-path="url(#clip0_5850_4942)">
<path id="Vector" d="M16.5 0H2.5C1.4 0 0.5 0.9 0.5 2V16C0.5 17.1 1.4 18 2.5 18H16.5C17.6 18 18.5 17.1 18.5 16V2C18.5 0.9 17.6 0 16.5 0ZM12.49 16.5H2.5C2.22 16.5 2 16.28 2 16V15.45L6.33 11.12L8.44 13.23L9.5 14.29L10.56 13.23L12.67 11.12L17 15.45V16C17 16.28 16.78 16.5 16.5 16.5H12.49ZM12.67 9L9.5 12.17L6.33 9L2 13.33V2C2 1.72 2.22 1.5 2.5 1.5H16.5C16.78 1.5 17 1.72 17 2V13.33L12.67 9Z" fill="white"/>
<path id="Vector_2" d="M13 3C11.62 3 10.5 4.12 10.5 5.5C10.5 6.88 11.62 8 13 8C14.38 8 15.5 6.88 15.5 5.5C15.5 4.12 14.38 3 13 3ZM13 6.5C12.45 6.5 12 6.05 12 5.5C12 4.95 12.45 4.5 13 4.5C13.55 4.5 14 4.95 14 5.5C14 6.05 13.55 6.5 13 6.5Z" fill="white"/>
</g>
<defs>
<clipPath id="clip0_5850_4942">
<rect width="18" height="18" fill="white" transform="translate(0.5)"/>
</clipPath>
</defs>
</svg>
