<svg width="18" height="18" viewBox="0 0 18 18" fill="none" xmlns="http://www.w3.org/2000/svg">
<rect width="18" height="18" fill="#333333"/>
<g id="ICON">
<path d="M-1163 -388C-1163 -405.673 -1148.67 -420 -1131 -420H151C168.673 -420 183 -405.673 183 -388V627C183 644.673 168.673 659 151 659H-1131C-1148.67 659 -1163 644.673 -1163 627V-388Z" fill="white"/>
<path d="M-1131 -419H151V-421H-1131V-419ZM182 -388V627H184V-388H182ZM151 658H-1131V660H151V658ZM-1162 627V-388H-1164V627H-1162ZM-1131 658C-1148.12 658 -1162 644.121 -1162 627H-1164C-1164 645.225 -1149.23 660 -1131 660V658ZM182 627C182 644.121 168.121 658 151 658V660C169.225 660 184 645.225 184 627H182ZM151 -419C168.121 -419 182 -405.121 182 -388H184C184 -406.225 169.225 -421 151 -421V-419ZM-1131 -421C-1149.23 -421 -1164 -406.225 -1164 -388H-1162C-1162 -405.121 -1148.12 -419 -1131 -419V-421Z" fill="white" fill-opacity="0.1"/>
<g id="icon/24px/image">
<rect width="24" height="24" transform="translate(-3 -3)" fill="white"/>
<g id="Layer_1" clip-path="url(#clip0_5_16403)">
<path id="Vector" d="M16 0H2C0.9 0 0 0.9 0 2V16C0 17.1 0.9 18 2 18H16C17.1 18 18 17.1 18 16V2C18 0.9 17.1 0 16 0ZM11.99 16.5H2C1.72 16.5 1.5 16.28 1.5 16V15.45L5.83 11.12L7.94 13.23L9 14.29L10.06 13.23L12.17 11.12L16.5 15.45V16C16.5 16.28 16.28 16.5 16 16.5H11.99ZM12.17 9L9 12.17L5.83 9L1.5 13.33V2C1.5 1.72 1.72 1.5 2 1.5H16C16.28 1.5 16.5 1.72 16.5 2V13.33L12.17 9Z" fill="#1E293B"/>
<path id="Vector_2" d="M12.5 3C11.12 3 10 4.12 10 5.5C10 6.88 11.12 8 12.5 8C13.88 8 15 6.88 15 5.5C15 4.12 13.88 3 12.5 3ZM12.5 6.5C11.95 6.5 11.5 6.05 11.5 5.5C11.5 4.95 11.95 4.5 12.5 4.5C13.05 4.5 13.5 4.95 13.5 5.5C13.5 6.05 13.05 6.5 12.5 6.5Z" fill="#1E293B"/>
</g>
</g>
</g>
<defs>
<clipPath id="clip0_5_16403">
<rect width="18" height="18" fill="white"/>
</clipPath>
</defs>
</svg>
