<svg width="22" height="20" viewBox="0 0 22 20" fill="none" xmlns="http://www.w3.org/2000/svg">
<g id="Layer_1" clip-path="url(#clip0_3071_1964)">
<path id="Vector" d="M5.92143 1.8183C6.98477 1.8183 7.9931 2.27284 8.7631 3.09102L9.6431 4.05466L10.9998 5.50921L12.3564 4.05466L13.0348 3.32739C13.8598 2.43648 15.0148 1.90921 16.2064 1.90921C16.8848 1.90921 17.8931 2.09102 18.7548 2.92739C20.5881 4.69102 20.6798 7.78193 18.9381 9.65466L11.0364 18.2001L3.22643 9.80012C1.68643 8.14557 1.3931 5.63648 2.51143 3.83648C3.29977 2.54557 4.54643 1.8183 5.92143 1.8183ZM5.92143 0.000115411C4.0331 0.000115411 2.14477 0.963752 0.953099 2.89102C-0.641901 5.45466 -0.165234 8.83648 1.86977 11.0365L9.66143 19.4183C10.0281 19.8001 10.5048 20.0001 10.9814 20.0001C11.4581 20.0001 11.9348 19.8001 12.3014 19.4183L20.2398 10.8728C22.6414 8.29103 22.5498 4.07284 20.0014 1.6183C18.9198 0.581934 17.5631 0.0910245 16.1698 0.0910245C14.5198 0.0910245 12.8698 0.781933 11.6598 2.09102L10.9814 2.8183L10.1014 1.85466C8.94643 0.618297 7.42477 -0.0180664 5.9031 -0.0180664L5.92143 0.000115411Z" fill="#64748B"/>
</g>
<defs>
<clipPath id="clip0_3071_1964">
<rect width="22" height="20" fill="white"/>
</clipPath>
</defs>
</svg>
