<svg width="24" height="24" viewBox="0 0 24 24" fill="none" xmlns="http://www.w3.org/2000/svg">
<g clip-path="url(#clip0_2303_26693)">
<path d="M6.92168 2.00012C5.03334 2.00012 3.14501 2.96375 1.95334 4.89102C0.358343 7.45466 0.83501 10.8365 2.87001 13.0365L10.6617 21.4183C11.0283 21.8001 11.505 22.0001 11.9817 22.0001C12.4583 22.0001 12.935 21.8001 13.3017 21.4183L21.24 12.8728C23.6417 10.291 23.55 6.07284 21.0017 3.6183C19.92 2.58193 18.5633 2.09102 17.17 2.09102C15.52 2.09102 13.87 2.78193 12.66 4.09102L11.9817 4.8183L11.1017 3.85466C9.94668 2.6183 8.42501 1.98193 6.90334 1.98193L6.92168 2.00012Z" fill="#FF823C"/>
</g>
<defs>
<clipPath id="clip0_2303_26693">
<rect width="22" height="20" fill="white" transform="translate(1 2)"/>
</clipPath>
</defs>
</svg>
