<svg width="16" height="16" viewBox="0 0 16 16" fill="none" xmlns="http://www.w3.org/2000/svg">
<path d="M12.5 6.90909C12.5 8.61374 11.3711 10.2636 10.1402 11.5392C9.53555 12.1658 8.92915 12.6787 8.47329 13.0351C8.28574 13.1817 8.12437 13.3013 8 13.3909C7.87564 13.3013 7.71426 13.1817 7.52671 13.0351C7.07085 12.6787 6.46445 12.1658 5.85981 11.5392C4.62894 10.2636 3.5 8.61374 3.5 6.90909C3.5 5.74272 3.97183 4.62222 4.81476 3.79462C5.658 2.96671 6.8036 2.5 8 2.5C9.1964 2.5 10.342 2.96671 11.1852 3.79462C12.0282 4.62222 12.5 5.74272 12.5 6.90909Z" stroke="#64748B" stroke-linecap="round" stroke-linejoin="round"/>
<path d="M9.5 7C9.5 7.82843 8.82843 8.5 8 8.5C7.17157 8.5 6.5 7.82843 6.5 7C6.5 6.17157 7.17157 5.5 8 5.5C8.82843 5.5 9.5 6.17157 9.5 7Z" stroke="#64748B" stroke-linecap="round" stroke-linejoin="round"/>
</svg>
