<svg width="25" height="24" viewBox="0 0 25 24" fill="none" xmlns="http://www.w3.org/2000/svg">
<g id="icon/24px/lock">
<g id="Vector" filter="url(#filter0_d_2778_13432)">
<path d="M18.0566 9H17.0566V8C17.0566 5.24 14.8166 3 12.0566 3C9.29664 3 7.05664 5.24 7.05664 8V9H6.05664C4.95664 9 4.05664 9.9 4.05664 11V19C4.05664 20.1 4.95664 21 6.05664 21H18.0566C19.1566 21 20.0566 20.1 20.0566 19V11C20.0566 9.9 19.1566 9 18.0566 9ZM8.55664 8C8.55664 6.07 10.1266 4.5 12.0566 4.5C13.9866 4.5 15.5566 6.07 15.5566 8V9H8.55664V8ZM13.0566 15.5C13.0566 16.05 12.6066 16.5 12.0566 16.5C11.5066 16.5 11.0566 16.05 11.0566 15.5V14.5C11.0566 13.95 11.5066 13.5 12.0566 13.5C12.6066 13.5 13.0566 13.95 13.0566 14.5V15.5Z" fill="white"/>
</g>
</g>
<defs>
<filter id="filter0_d_2778_13432" x="2.05664" y="1" width="20" height="22" filterUnits="userSpaceOnUse" color-interpolation-filters="sRGB">
<feFlood flood-opacity="0" result="BackgroundImageFix"/>
<feColorMatrix in="SourceAlpha" type="matrix" values="0 0 0 0 0 0 0 0 0 0 0 0 0 0 0 0 0 0 127 0" result="hardAlpha"/>
<feOffset/>
<feGaussianBlur stdDeviation="1"/>
<feComposite in2="hardAlpha" operator="out"/>
<feColorMatrix type="matrix" values="0 0 0 0 0 0 0 0 0 0 0 0 0 0 0 0 0 0 0.08 0"/>
<feBlend mode="normal" in2="BackgroundImageFix" result="effect1_dropShadow_2778_13432"/>
<feBlend mode="normal" in="SourceGraphic" in2="effect1_dropShadow_2778_13432" result="shape"/>
</filter>
</defs>
</svg>
