<svg width="32" height="32" viewBox="0 0 32 32" fill="none" xmlns="http://www.w3.org/2000/svg">
<path d="M16.1665 18C17.2711 18 18.1665 17.1046 18.1665 16C18.1665 14.8954 17.2711 14 16.1665 14C15.0619 14 14.1665 14.8954 14.1665 16C14.1665 17.1046 15.0619 18 16.1665 18Z" fill="#1E293B"/>
<path d="M24.3335 18C25.4381 18 26.3335 17.1046 26.3335 16C26.3335 14.8954 25.4381 14 24.3335 14C23.2289 14 22.3335 14.8954 22.3335 16C22.3335 17.1046 23.2289 18 24.3335 18Z" fill="#1E293B"/>
<path d="M8 18C9.10457 18 10 17.1046 10 16C10 14.8954 9.10457 14 8 14C6.89543 14 6 14.8954 6 16C6 17.1046 6.89543 18 8 18Z" fill="#1E293B"/>
</svg>
