<svg width="32" height="32" viewBox="0 0 32 32" fill="none" xmlns="http://www.w3.org/2000/svg">
<circle cx="16" cy="16" r="14" fill="#F5F9FC"/>
<mask id="path-2-inside-1_1985_26943" fill="white">
<path fill-rule="evenodd" clip-rule="evenodd" d="M26.5149 6.75655C23.2309 8.53136 21 12.0051 21 16C21 19.9949 23.2309 23.4686 26.5149 25.2435C23.9493 28.1597 20.1895 30 16 30C8.26801 30 2 23.732 2 16C2 8.26801 8.26801 2 16 2C20.1895 2 23.9493 3.84026 26.5149 6.75655Z"/>
</mask>
<path fill-rule="evenodd" clip-rule="evenodd" d="M26.5149 6.75655C23.2309 8.53136 21 12.0051 21 16C21 19.9949 23.2309 23.4686 26.5149 25.2435C23.9493 28.1597 20.1895 30 16 30C8.26801 30 2 23.732 2 16C2 8.26801 8.26801 2 16 2C20.1895 2 23.9493 3.84026 26.5149 6.75655Z" fill="#FFB78F"/>
<path d="M26.5149 6.75655L26.9904 7.63629L28.0954 7.03908L27.2657 6.09601L26.5149 6.75655ZM26.5149 25.2435L27.2657 25.904L28.0954 24.9609L26.9904 24.3637L26.5149 25.2435ZM22 16C22 12.387 24.0166 9.24345 26.9904 7.63629L26.0395 5.8768C22.4453 7.81926 20 11.6233 20 16H22ZM26.9904 24.3637C24.0166 22.7565 22 19.613 22 16H20C20 20.3767 22.4453 24.1807 26.0395 26.1232L26.9904 24.3637ZM25.7641 24.5829C23.3803 27.2926 19.8901 29 16 29V31C20.4889 31 24.5183 29.0269 27.2657 25.904L25.7641 24.5829ZM16 29C8.8203 29 3 23.1797 3 16H1C1 24.2843 7.71573 31 16 31V29ZM3 16C3 8.8203 8.8203 3 16 3V1C7.71573 1 1 7.71573 1 16H3ZM16 3C19.8901 3 23.3803 4.70743 25.7641 7.41708L27.2657 6.09601C24.5183 2.9731 20.4889 1 16 1V3Z" fill="#FF823C" mask="url(#path-2-inside-1_1985_26943)"/>
<ellipse cx="10.2822" cy="9.31507" rx="3.5" ry="2.58122" transform="rotate(-46.4552 10.2822 9.31507)" fill="#FF823C"/>
<ellipse cx="6.82252" cy="15.0798" rx="1.73297" ry="1.27805" transform="rotate(-68.5871 6.82252 15.0798)" fill="#FF823C"/>
<ellipse cx="11.8225" cy="15.0798" rx="1.73297" ry="1.27805" transform="rotate(-68.5871 11.8225 15.0798)" fill="#FF823C"/>
</svg>
