<svg width="32" height="32" viewBox="0 0 32 32" fill="none" xmlns="http://www.w3.org/2000/svg">
<circle cx="16" cy="16" r="14" fill="#F5F9FC"/>
<mask id="path-2-inside-1_1359_14494" fill="white">
<path fill-rule="evenodd" clip-rule="evenodd" d="M25.8416 6.0429C24.7919 5.69079 23.6682 5.5 22.5 5.5C16.701 5.5 12 10.201 12 16C12 21.799 16.701 26.5 22.5 26.5C23.6682 26.5 24.7919 26.3092 25.8416 25.9571C23.3128 28.4567 19.8366 30 16 30C8.26801 30 2 23.732 2 16C2 8.26801 8.26801 2 16 2C19.8366 2 23.3128 3.54327 25.8416 6.0429Z"/>
</mask>
<path fill-rule="evenodd" clip-rule="evenodd" d="M25.8416 6.0429C24.7919 5.69079 23.6682 5.5 22.5 5.5C16.701 5.5 12 10.201 12 16C12 21.799 16.701 26.5 22.5 26.5C23.6682 26.5 24.7919 26.3092 25.8416 25.9571C23.3128 28.4567 19.8366 30 16 30C8.26801 30 2 23.732 2 16C2 8.26801 8.26801 2 16 2C19.8366 2 23.3128 3.54327 25.8416 6.0429Z" fill="#FFB78F"/>
<path d="M25.8416 6.0429L25.5235 6.99098L26.5445 5.3317L25.8416 6.0429ZM25.8416 25.9571L26.5445 26.6683L25.5235 25.009L25.8416 25.9571ZM22.5 6.5C23.5587 6.5 24.5751 6.67281 25.5235 6.99098L26.1596 5.09482C25.0088 4.70877 23.7777 4.5 22.5 4.5V6.5ZM13 16C13 10.7533 17.2533 6.5 22.5 6.5V4.5C16.1487 4.5 11 9.64873 11 16H13ZM22.5 25.5C17.2533 25.5 13 21.2467 13 16H11C11 22.3513 16.1487 27.5 22.5 27.5V25.5ZM25.5235 25.009C24.5751 25.3272 23.5587 25.5 22.5 25.5V27.5C23.7777 27.5 25.0088 27.2912 26.1596 26.9052L25.5235 25.009ZM25.1386 25.2459C22.7893 27.568 19.5629 29 16 29V31C20.1103 31 23.8362 29.3454 26.5445 26.6683L25.1386 25.2459ZM16 29C8.8203 29 3 23.1797 3 16H1C1 24.2843 7.71573 31 16 31V29ZM3 16C3 8.8203 8.8203 3 16 3V1C7.71573 1 1 7.71573 1 16H3ZM16 3C19.5629 3 22.7893 4.43197 25.1386 6.7541L26.5445 5.3317C23.8362 2.65457 20.1103 1 16 1V3Z" fill="#FF823C" mask="url(#path-2-inside-1_1359_14494)"/>
<ellipse cx="10.2822" cy="9.31507" rx="3.5" ry="2.58122" transform="rotate(-46.4552 10.2822 9.31507)" fill="#FF823C"/>
<ellipse cx="6.82252" cy="15.0798" rx="1.73297" ry="1.27805" transform="rotate(-68.5871 6.82252 15.0798)" fill="#FF823C"/>
<ellipse cx="11.2339" cy="14.849" rx="1.73297" ry="0.645779" transform="rotate(-68.5871 11.2339 14.849)" fill="#FF823C"/>
</svg>
