<svg width="16" height="16" viewBox="0 0 16 16" fill="none" xmlns="http://www.w3.org/2000/svg">
<path d="M11.1819 5.8704L11.182 5.87052C11.8114 6.49565 12.2398 7.29187 12.4134 8.15831C12.5871 9.02474 12.4983 9.92291 12.1582 10.7394C11.818 11.5558 11.2417 12.2542 10.5016 12.7458C9.76139 13.2374 8.89083 13.5 8 13.5C7.10918 13.5 6.23861 13.2374 5.49845 12.7458C4.75831 12.2542 4.18197 11.5558 3.84184 10.7394C3.50173 9.92291 3.41294 9.02474 3.58657 8.15831C3.7602 7.29187 4.18857 6.49565 4.81797 5.87052L4.8184 5.87009L7.99719 2.70525L11.1819 5.8704Z" stroke="#64748B" stroke-linecap="round" stroke-linejoin="round"/>
</svg>
