<svg width="24" height="24" viewBox="0 0 24 24" fill="none" xmlns="http://www.w3.org/2000/svg">
<g id="icon/24px/reset">
<path id="Vector" d="M12 3.25C9.98 3.25 8.05 3.96 6.5 5.21V4C6.5 3.59 6.16 3.25 5.75 3.25C5.34 3.25 5 3.59 5 4V7.75H8.75C9.16 7.75 9.5 7.41 9.5 7C9.5 6.59 9.16 6.25 8.75 6.25H7.59C8.85 5.29 10.39 4.75 12 4.75C16 4.75 19.25 8 19.25 12C19.25 16 16 19.25 12 19.25C8 19.25 4.75 16 4.75 12C4.75 11.59 4.41 11.25 4 11.25C3.59 11.25 3.25 11.59 3.25 12C3.25 16.82 7.18 20.75 12 20.75C16.82 20.75 20.75 16.82 20.75 12C20.75 7.18 16.82 3.25 12 3.25Z" fill="#1E293B"/>
</g>
</svg>
