<svg width="18" height="18" viewBox="0 0 18 18" fill="none" xmlns="http://www.w3.org/2000/svg">
<path d="M17.78 16.72L12.45 11.39C13.42 10.19 14 8.66 14 7C14 3.13 10.87 0 7 0C3.13 0 0 3.13 0 7C0 10.87 3.13 14 7 14C8.66 14 10.19 13.42 11.39 12.45L16.72 17.78C16.87 17.93 17.06 18 17.25 18C17.44 18 17.63 17.93 17.78 17.78C18.07 17.49 18.07 17.01 17.78 16.72ZM7 12.5C3.97 12.5 1.5 10.03 1.5 7C1.5 3.97 3.97 1.5 7 1.5C10.03 1.5 12.5 3.97 12.5 7C12.5 8.25 12.08 9.39 11.38 10.32C11.08 10.72 10.72 11.08 10.32 11.38C9.4 12.08 8.25 12.5 7 12.5Z" fill="#334155"/>
</svg>
