<svg width="12" height="13" viewBox="0 0 12 13" fill="none" xmlns="http://www.w3.org/2000/svg">
<g clip-path="url(#clip0_4941_3450)">
<path d="M6 1.5C8.76 1.5 11 3.52 11 5.99C11 7.41 10.23 8.77 8.94 9.62L8.57 9.86L8.5 10.3L8.33 11.42C8.33 11.42 8.33 11.44 8.33 11.45L7.68 10.73L7.32 10.34L6.8 10.42C6.5 10.46 6.25 10.48 6.01 10.48C3.25 10.48 1.01 8.46 1.01 5.99C1.01 3.52 3.24 1.5 6 1.5ZM6 0.5C2.69 0.5 0 2.96 0 5.99C0 9.02 2.69 11.48 6 11.48C6.32 11.48 6.63 11.45 6.93 11.41L7.62 12.17C7.82 12.39 8.07 12.49 8.32 12.49C8.78 12.49 9.22 12.14 9.31 11.57L9.48 10.45C11 9.45 11.99 7.83 11.99 5.99C11.99 2.96 9.3 0.5 5.99 0.5L6 0.5Z" fill="#64748B"/>
</g>
<defs>
<clipPath id="clip0_4941_3450">
<rect width="12" height="12" fill="white" transform="translate(0 0.5)"/>
</clipPath>
</defs>
</svg>
