<svg width="24" height="24" viewBox="0 0 24 24" fill="none" xmlns="http://www.w3.org/2000/svg">
<path d="M12.125 13.5C12.9534 13.5 13.625 12.8284 13.625 12C13.625 11.1716 12.9534 10.5 12.125 10.5C11.2966 10.5 10.625 11.1716 10.625 12C10.625 12.8284 11.2966 13.5 12.125 13.5Z" fill="#64748B"/>
<path d="M18.25 13.5C19.0784 13.5 19.75 12.8284 19.75 12C19.75 11.1716 19.0784 10.5 18.25 10.5C17.4216 10.5 16.75 11.1716 16.75 12C16.75 12.8284 17.4216 13.5 18.25 13.5Z" fill="#64748B"/>
<path d="M6 13.5C6.82843 13.5 7.5 12.8284 7.5 12C7.5 11.1716 6.82843 10.5 6 10.5C5.17157 10.5 4.5 11.1716 4.5 12C4.5 12.8284 5.17157 13.5 6 13.5Z" fill="#64748B"/>
</svg>
