<svg width="21" height="4" viewBox="0 0 21 4" fill="none" xmlns="http://www.w3.org/2000/svg">
<path d="M10.1667 4C11.2713 4 12.1667 3.10457 12.1667 2C12.1667 0.89543 11.2713 0 10.1667 0C9.06212 0 8.16669 0.89543 8.16669 2C8.16669 3.10457 9.06212 4 10.1667 4Z" fill="#1E293B"/>
<path d="M18.3334 4C19.4379 4 20.3334 3.10457 20.3334 2C20.3334 0.89543 19.4379 0 18.3334 0C17.2288 0 16.3334 0.89543 16.3334 2C16.3334 3.10457 17.2288 4 18.3334 4Z" fill="#1E293B"/>
<path d="M2 4C3.10457 4 4 3.10457 4 2C4 0.89543 3.10457 0 2 0C0.89543 0 0 0.89543 0 2C0 3.10457 0.89543 4 2 4Z" fill="#1E293B"/>
</svg>
