<svg width="45" height="40" viewBox="0 0 45 40" fill="none" xmlns="http://www.w3.org/2000/svg">
<g clip-path="url(#clip0_4941_1834)">
<path d="M19.8714 2.77936C21.0111 0.707031 23.9889 0.707034 25.1286 2.77936L42.0548 33.5542C43.1545 35.5536 41.708 38 39.4262 38H5.57381C3.292 38 1.84552 35.5536 2.94517 33.5542L19.8714 2.77936Z" fill="#ED0D00"/>
<path d="M24 30.5C24 31.3284 23.3284 32 22.5 32C21.6716 32 21 31.3284 21 30.5C21 29.6716 21.6716 29 22.5 29C23.3284 29 24 29.6716 24 30.5Z" fill="#D9D9D9"/>
<path fill-rule="evenodd" clip-rule="evenodd" d="M22.5 31C22.7761 31 23 30.7761 23 30.5C23 30.2239 22.7761 30 22.5 30C22.2239 30 22 30.2239 22 30.5C22 30.7761 22.2239 31 22.5 31ZM22.5 32C23.3284 32 24 31.3284 24 30.5C24 29.6716 23.3284 29 22.5 29C21.6716 29 21 29.6716 21 30.5C21 31.3284 21.6716 32 22.5 32Z" fill="white"/>
<path fill-rule="evenodd" clip-rule="evenodd" d="M22.5 14C23.3284 14 24 14.6716 24 15.5V25.5C24 26.3284 23.3284 27 22.5 27C21.6716 27 21 26.3284 21 25.5V15.5C21 14.6716 21.6716 14 22.5 14Z" fill="white"/>
</g>
<defs>
<clipPath id="clip0_4941_1834">
<rect width="44" height="40" fill="white" transform="translate(0.5)"/>
</clipPath>
</defs>
</svg>
