<svg width="57" height="56" viewBox="0 0 57 56" fill="none" xmlns="http://www.w3.org/2000/svg">
<g id="Layer_1" clip-path="url(#clip0_3781_3777)">
<path id="Vector" d="M49.4728 36.9899V22.0136C49.4728 20.4178 49.2745 18.8716 48.9375 17.375L17.3397 48.9729H20.0653C21.3043 52.4518 24.5949 54.9594 28.5 54.9594C32.4051 54.9594 35.6958 52.4518 36.9347 48.9729H45.7659C50.2161 48.9729 53.1202 44.2847 51.128 40.3003L49.4728 36.9899Z" fill="#64748B"/>
<path id="Vector_2" d="M55.6277 0.872212C55.0429 0.287434 54.2897 0 53.5265 0C52.7633 0 52.0001 0.287434 51.4252 0.872212L44.1799 8.11752C43.7438 7.62195 43.278 7.14619 42.7923 6.70018C42.3066 6.24425 41.8012 5.81805 41.2759 5.41168C37.7374 2.68602 33.3169 1.04071 28.4999 1.04071C16.9233 1.04071 7.52718 10.4269 7.52718 22.0135V36.9897L5.87196 40.3002C5.7332 40.5876 5.62417 40.875 5.52506 41.1625C5.19798 42.1635 5.15833 43.1844 5.34665 44.1359C5.48541 44.8496 5.76294 45.5335 6.13957 46.148L1.36223 50.9253C0.202581 52.085 0.202581 53.9681 1.36223 55.1278C1.94701 55.7126 2.70028 56 3.46347 56C4.22665 56 4.98984 55.7126 5.56471 55.1278L11.7297 48.9628L47.5102 13.1922L55.6277 5.07469C56.7874 3.91504 56.7874 2.03186 55.6277 0.872212Z" fill="#64748B"/>
</g>
<defs>
<clipPath id="clip0_3781_3777">
<rect width="56" height="56" fill="white" transform="translate(0.5)"/>
</clipPath>
</defs>
</svg>
