<svg width="32" height="32" viewBox="0 0 32 32" fill="none" xmlns="http://www.w3.org/2000/svg">
<circle cx="16" cy="16" r="14" fill="#F5F9FC"/>
<mask id="path-2-inside-1_4394_35477" fill="white">
<path d="M16 30C12.287 30 8.72602 28.525 6.10051 25.8995C3.475 23.274 2 19.713 2 16C2 12.287 3.47499 8.72602 6.1005 6.10051C8.72601 3.475 12.287 2 16 2L16 16L16 30Z"/>
</mask>
<path d="M16 30C12.287 30 8.72602 28.525 6.10051 25.8995C3.475 23.274 2 19.713 2 16C2 12.287 3.47499 8.72602 6.1005 6.10051C8.72601 3.475 12.287 2 16 2L16 16L16 30Z" fill="#FFB78F" stroke="#FF823C" stroke-width="2" mask="url(#path-2-inside-1_4394_35477)"/>
<ellipse cx="10.2822" cy="9.31507" rx="3.5" ry="2.58122" transform="rotate(-46.4552 10.2822 9.31507)" fill="#FF823C"/>
<ellipse cx="6.82252" cy="15.0798" rx="1.73297" ry="1.27805" transform="rotate(-68.5871 6.82252 15.0798)" fill="#FF823C"/>
<ellipse cx="11.8225" cy="15.0798" rx="1.73297" ry="1.27805" transform="rotate(-68.5871 11.8225 15.0798)" fill="#FF823C"/>
</svg>
